Scary Movie 5 2013 CAM XViD-OPTiMUM


IMDB: http://www.imdb.com/title/tt0795461/


Format                                   : AVI
Format/Info                              : Audio Video Interleave
File size                                : 680 MiB
Duration                                 : 1h 10mn
Overall bit rate                         : 1 340 Kbps
Writing application                      : VirtualDubMod 1.5.10.2 
Writing library                          : VirtualDubMod build 2540/release

Video
ID                                       : 0
Format                                   : MPEG-4 Visual
Format profile                           : Advanced Simple@L5
Format settings, BVOP                    : 2
Format settings, QPel                    : No
Format settings, GMC                     : No warppoints
Format settings, Matrix                  : Default (H.263)
Muxing mode                              : Packed bitstream
Codec ID                                 : XVID
Codec ID/Hint                            : XviD
Duration                                 : 1h 10mn
Bit rate                                 : 1 200 Kbps
Width                                    : 678 pixels
Height                                   : 342 pixels
Display aspect ratio                     : 1.982
Frame rate                               : 29.970 fps
Color space                              : YUV
Chroma subsampling                       : 4:2:0
Bit depth                                : 8 bits
Scan type                                : Progressive
Compression mode                         : Lossy
Bits/(Pixel*Frame)                       : 0.173
Stream size                              : 609 MiB (90%)
Writing library                          : XviD 64

Audio
ID                                       : 1
Format                                   : MPEG Audio
Format version                           : Version 1
Format profile                           : Layer 3
Codec ID                                 : 55
Codec ID/Hint                            : MP3
Duration                                 : 1h 10mn
Bit rate mode                            : Constant
Bit rate                                 : 128 Kbps
Channel(s)                               : 2 channels
Sampling rate                            : 48.0 KHz
Compression mode                         : Lossy
Stream size                              : 64.9 MiB (10%)
Alignment                                : Split accross interleaves
Interleave, duration                     : 33 ms (1.00 video frame)
Interleave, preload duration             : 500 ms


Source Used 

Scary Movie 5 2013 CAMRip x264-HustleHard /Thanks


Poster:

 
http://i.imgur.com/IaM3mzr.jpg


Screenshots:

 
http://i.imgur.com/5XzmhLJ.png

 
http://i.imgur.com/QLKe1hi.png

 
http://i.imgur.com/C0yQmLC.png


SEED AND ENJOY!